<?xml version="1.0" encoding="UTF-8"?>
<svg viewBox="0 0 19600 19600" width="1960" xmlns="http://www.w3.org/2000/svg">
  <g fill="rgb(0,0,0)"/>
  <g fill="rgb(85,85,85)">
    <path d="M14025 14472 c-22 -2 -43 -9 -47 -15 -4 -7 -8 -37 -8 -67 0 -39 3 -51 10 -40 6 9 10 10 10 3 0 -6 -4 -14 -8 -17 -5 -3 -12 -43 -16 -88 -9 -121 -15 -162 -64 -418 -16 -85 -34 -189 -41 -230 -6 -41 -16 -77 -21 -80 -4 -3 -16 -43 -25 -90 -9 -47 -21 -97 -26 -111 -6 -14 -11 -35 -12 -47 -1 -12 -4 -22 -8 -22 -9 0 -25 -53 -33 -109 -4 -24 -13 -56 -20 -70 -27 -50 -76 -168 -76 -180 0 -22 -237 -509 -275 -565 -14 -21 -37 -59 -51 -85 -48 -92 -343 -515 -384 -551 -3 -3 -42 -48 -87 -100 -96 -112 -265 -278 -418 -411 -117 -102 -393 -311 -485 -368 -160 -98 -250 -148 -392 -219 -87 -42 -158 -80 -158 -84 0 -4 26 -25 58 -45 190 -124 482 -386 587 -528 17 -22 54 -68 82 -102 70 -84 255 -365 289 -439 14 -32 45 -99 68 -149 50 -106 65 -147 118 -315 40 -130 97 -358 116 -470 28 -161 32 -512 9 -717 -10 -78 -14 -149 -11 -157 3 -9 29 -22 58 -30 216 -57 359 -71 626 -63 218 7 294 16 425 51 50 14 113 30 140 37 171 43 578 255 690 358 22 21 65 57 95 82 94 76 236 227 327 349 156 209 321 573 363 798 5 30 12 57 14 61 3 4 13 57 22 117 21 133 24 498 5 619 -46 300 -129 540 -276 800 -42 74 -82 131 -165 234 -113 140 -148 179 -231 256 -144 132 -170 154 -244 202 -41 26 -75 53 -75 59 0 7 25 22 55 34 75 31 345 181 425 238 194 136 270 201 461 391 183 183 295 315 363 426 10 17 29 41 41 55 31 33 122 182 185 300 70 131 197 418 214 482 7 29 30 107 49 173 75 252 121 509 132 732 l7 133 -1174 -3 c-645 -1 -1191 -3 -1213 -5z"/>
    <path d="M3192 14471 c-14 -9 6 -253 28 -347 11 -45 20 -99 20 -120 0 -22 7 -64 15 -94 9 -30 22 -86 30 -125 25 -124 82 -322 113 -392 17 -37 33 -80 36 -96 11 -50 172 -382 227 -467 16 -25 43 -68 61 -96 68 -107 112 -170 147 -210 20 -23 65 -78 101 -123 100 -126 206 -239 291 -311 42 -36 114 -97 160 -136 46 -39 111 -89 144 -111 33 -22 87 -58 120 -81 76 -51 213 -127 338 -188 53 -26 97 -52 97 -59 0 -6 -33 -32 -72 -58 -40 -25 -90 -62 -112 -81 -21 -20 -75 -67 -121 -106 -164 -140 -349 -379 -462 -600 -40 -78 -110 -247 -129 -310 -7 -25 -22 -71 -33 -103 -47 -135 -81 -392 -81 -609 0 -218 49 -518 106 -649 13 -31 24 -62 24 -68 0 -20 101 -254 129 -301 16 -25 43 -72 61 -105 18 -33 46 -75 61 -93 16 -18 29 -37 29 -42 0 -9 71 -96 154 -190 113 -126 272 -265 371 -323 39 -23 86 -53 105 -68 75 -58 336 -178 470 -217 19 -5 76 -22 125 -36 259 -77 697 -88 1001 -26 53 11 108 26 123 33 30 15 30 13 12 208 -13 141 -17 422 -7 499 36 289 61 419 121 625 23 79 130 361 145 380 4 6 34 62 66 125 91 180 231 388 370 551 133 155 384 378 569 505 54 37 71 54 63 61 -7 5 -74 38 -148 73 -115 55 -357 190 -425 236 -11 8 -42 29 -70 47 -181 121 -402 306 -594 496 -299 298 -489 543 -730 943 -111 186 -296 594 -356 788 -15 47 -35 101 -45 121 -11 20 -26 68 -34 105 -37 168 -45 201 -56 229 -29 75 -96 540 -108 751 -4 82 -11 155 -15 161 -7 11 -2417 16 -2435 4z"/>
  </g>
  <path d="M0 9800 l0 -9800 9800 0 9800 0 0 9800 0 9800 -9800 0 -9800 0 0 -9800z m13927 4684 c12 -3 24 -11 26 -17 5 -14 -8 -211 -23 -352 -103 -940 -502 -1844 -1122 -2540 -232 -260 -551 -538 -814 -708 -178 -115 -237 -149 -434 -250 -107 -54 -196 -102 -198 -106 -1 -4 26 -26 60 -49 377 -244 722 -625 948 -1047 180 -337 271 -620 327 -1015 27 -192 24 -575 -6 -779 -47 -327 -125 -579 -271 -876 -514 -1050 -1626 -1698 -2790 -1625 -411 26 -758 118 -1125 299 -475 235 -852 569 -1152 1021 -325 491 -490 1080 -470 1680 15 438 108 815 298 1205 211 435 571 850 969 1120 47 32 86 61 88 65 2 4 -50 33 -114 64 -219 105 -341 177 -606 354 -228 152 -578 470 -779 707 -656 772 -1021 1691 -1094 2758 l-7 97 4134 0 c2273 0 4143 -3 4155 -6z m-8330 -47 c4 -6 11 -79 15 -161 12 -211 79 -676 108 -751 11 -28 19 -61 56 -229 8 -37 23 -85 34 -105 10 -20 30 -74 45 -121 36 -116 152 -394 235 -562 152 -307 405 -684 634 -943 101 -115 348 -359 452 -446 100 -85 284 -225 359 -276 28 -18 59 -39 70 -47 67 -46 271 -160 393 -220 l143 -71 -80 -57 c-381 -276 -687 -628 -885 -1018 -32 -63 -62 -119 -66 -125 -15 -19 -122 -301 -145 -380 -122 -418 -153 -770 -109 -1247 l7 -77 -29 -11 c-51 -20 -211 -49 -322 -60 -252 -24 -542 -2 -737 56 -49 14 -106 31 -125 36 -134 39 -395 159 -470 217 -19 15 -66 45 -105 68 -99 58 -258 197 -371 323 -83 94 -154 181 -154 190 0 5 -13 24 -29 42 -15 18 -43 60 -61 93 -18 33 -45 80 -61 105 -28 47 -129 281 -129 301 0 6 -11 37 -24 68 -53 122 -105 431 -106 619 0 188 37 452 81 579 11 32 26 78 33 103 19 63 89 232 129 310 113 221 298 460 462 600 46 39 100 86 121 106 22 19 72 56 112 81 71 46 72 47 72 88 l0 42 -97 47 c-125 61 -262 137 -338 188 -33 23 -87 59 -120 81 -33 22 -98 72 -144 111 -46 39 -118 100 -160 136 -85 72 -191 185 -291 311 -36 45 -81 100 -101 123 -35 40 -79 103 -147 210 -18 28 -45 71 -61 96 -55 85 -216 417 -227 467 -3 16 -19 59 -36 96 -31 70 -88 268 -113 392 -8 39 -21 95 -30 125 -8 30 -15 73 -15 95 0 22 -9 76 -20 119 -20 82 -37 254 -27 279 4 12 178 14 1186 14 818 0 1184 -3 1188 -10z m10777 -90 c-10 -196 -60 -465 -131 -702 -19 -66 -42 -144 -49 -173 -17 -64 -144 -351 -214 -482 -63 -118 -154 -267 -185 -300 -12 -14 -31 -38 -41 -55 -68 -111 -180 -243 -363 -426 -191 -190 -267 -255 -461 -391 -80 -57 -350 -207 -425 -238 -54 -22 -55 -23 -55 -64 1 -40 2 -42 75 -89 74 -48 100 -70 244 -202 83 -77 118 -116 231 -256 174 -216 271 -400 366 -699 64 -200 88 -362 87 -600 0 -164 -21 -382 -39 -411 -2 -4 -9 -31 -14 -61 -42 -225 -207 -589 -363 -798 -91 -122 -233 -273 -327 -349 -30 -25 -73 -61 -95 -82 -112 -103 -519 -315 -690 -358 -27 -7 -90 -23 -140 -37 -124 -33 -203 -43 -395 -50 -234 -9 -385 7 -599 63 l-54 14 6 77 c4 42 11 128 17 190 11 126 -2 528 -21 622 -63 314 -149 601 -235 785 -23 50 -54 117 -68 149 -34 74 -219 355 -289 439 -28 34 -65 80 -82 102 -44 59 -139 161 -225 239 -89 82 -289 242 -343 275 l-38 23 143 72 c131 66 220 116 368 207 92 57 368 266 485 368 153 133 322 299 418 411 45 52 84 97 87 100 41 36 336 459 384 551 14 26 37 64 51 85 38 56 275 543 275 565 0 12 49 130 76 180 7 14 16 46 20 70 8 59 24 109 34 109 4 0 10 15 13 33 14 87 49 232 57 237 5 3 15 39 21 80 7 41 25 145 42 230 40 212 66 385 66 447 1 28 5 54 10 58 5 3 13 34 16 70 7 63 8 64 39 67 17 2 545 4 1173 5 l1142 1 -5 -101z" fill="rgb(170,170,170)"/>
  <path d="M5614 14393 c36 -674 211 -1334 502 -1898 315 -611 705 -1084 1231 -1493 93 -73 108 -83 290 -204 110 -72 258 -156 422 -238 57 -28 100 -55 95 -59 -5 -4 -34 -25 -64 -46 -246 -173 -471 -395 -675 -664 -78 -103 -200 -305 -264 -436 -195 -401 -284 -768 -298 -1230 -13 -454 53 -833 216 -1238 103 -257 314 -594 499 -800 290 -322 548 -520 907 -698 373 -184 717 -274 1141 -300 938 -57 1810 304 2418 1000 274 315 487 701 599 1091 88 306 111 480 111 845 1 298 -9 402 -59 650 -101 496 -359 990 -723 1383 -141 152 -448 412 -519 439 -8 3 57 43 154 93 569 293 1013 658 1412 1160 516 649 856 1483 950 2330 18 156 32 390 26 410 -3 10 -16 21 -28 24 -12 3 -1896 6 -4186 6 l-4164 0 7 -127z" fill="rgb(255,255,255)"/>
</svg>